<?xml version="1.0" standalone="no"?>
<!DOCTYPE svg PUBLIC "-//W3C//DTD SVG 20010904//EN"
 "http://www.w3.org/TR/2001/REC-SVG-20010904/DTD/svg10.dtd">
<svg version="1.0" xmlns="http://www.w3.org/2000/svg"
 width="750.000000pt" height="750.000000pt" viewBox="0 0 750.000000 750.000000"
 preserveAspectRatio="xMidYMid meet">

<g transform="translate(0.000000,750.000000) scale(0.100000,-0.100000)"
fill="#000000" stroke="none">
<path d="M0 3750 l0 -3750 3750 0 3750 0 0 3750 0 3750 -3750 0 -3750 0 0
-3750z m1126 2918 c-4 -13 -9 -63 -12 -113 -7 -122 2 -136 141 -210 236 -127
515 -244 1045 -440 190 -70 348 -130 352 -134 5 -5 -215 -306 -251 -344 -4 -4
-205 106 -447 244 -241 139 -531 305 -644 370 -138 79 -211 127 -222 146 -12
18 -18 22 -18 12 0 -9 8 -26 18 -38 9 -12 298 -187 642 -389 350 -206 626
-374 628 -383 2 -12 -54 -96 -113 -167 -5 -6 -426 254 -635 393 -231 153 -498
349 -595 438 -33 30 -72 77 -87 103 -49 90 -54 202 -14 298 29 69 177 236 209
236 5 0 6 -10 3 -22z m5381 -20 c66 -61 132 -152 156 -211 13 -35 20 -76 19
-125 0 -100 -38 -179 -125 -257 -104 -95 -390 -305 -622 -457 -219 -144 -605
-382 -610 -376 -58 71 -115 155 -113 167 2 9 278 177 625 382 343 201 632 374
643 384 11 10 20 28 20 39 -1 19 -2 18 -15 -5 -8 -15 -49 -47 -92 -72 -159
-93 -1215 -697 -1218 -697 -6 0 -260 343 -257 349 2 3 35 18 75 33 40 15 216
81 392 146 466 174 616 238 870 367 203 103 210 111 201 240 -3 50 -8 100 -12
113 -10 34 11 27 63 -20z m-4062 -256 c138 -83 301 -200 360 -259 73 -71 179
-234 214 -325 l11 -28 -163 1 -162 0 -188 272 c-180 262 -297 442 -297 460 0
10 86 -36 225 -121z m2869 56 c-47 -78 -199 -304 -342 -508 l-109 -155 -161
-3 c-89 -1 -162 0 -162 3 0 16 76 153 129 233 70 103 133 160 311 281 124 84
361 224 368 216 2 -2 -13 -32 -34 -67z m-1807 -265 c255 -15 286 -16 530 0
296 20 363 21 363 7 0 -6 -63 -136 -140 -290 -77 -154 -138 -280 -136 -280 3
0 24 31 48 70 l43 70 266 0 c146 0 287 -3 313 -6 l46 -7 -47 -55 c-52 -61 -30
-56 32 7 40 42 59 50 68 29 3 -7 57 -80 121 -163 63 -82 115 -153 116 -157 0
-8 -471 -291 -476 -286 -8 9 -114 253 -114 264 0 7 9 18 21 24 11 7 18 14 16
17 -3 2 -17 -3 -31 -12 -24 -16 -38 -15 -288 25 -145 23 -270 43 -277 45 -8 1
-17 7 -19 15 -3 9 -6 9 -12 1 -5 -9 -27 -9 -91 0 -61 9 -106 9 -164 2 -48 -6
-81 -6 -84 -1 -1 5 -10 3 -20 -5 -9 -8 -135 -35 -284 -61 l-269 -48 -24 23
c-13 12 -26 20 -29 17 -3 -2 4 -13 15 -23 11 -10 20 -24 20 -30 0 -11 -78
-194 -102 -238 -9 -17 -11 -17 -41 1 -18 11 -122 72 -232 137 -110 65 -204
121 -208 125 -6 5 204 293 243 334 5 5 33 -12 67 -40 l57 -49 -37 51 c-20 29
-37 54 -37 58 0 3 139 6 309 6 l308 0 47 -70 c25 -38 48 -70 51 -70 3 0 -10
28 -28 63 -91 167 -257 495 -257 505 0 16 28 15 347 -5z m-489 -47 c65 -33
140 -102 208 -192 63 -84 109 -162 101 -170 -3 -3 -65 -3 -137 1 l-132 8 -73
151 c-40 83 -80 171 -89 195 l-17 44 45 -6 c25 -4 67 -18 94 -31z m1661 7 c-6
-16 -48 -103 -92 -195 l-81 -168 -93 -2 c-51 0 -111 -2 -133 -3 -23 -1 -40 3
-40 9 0 24 118 186 184 252 86 86 166 131 238 133 26 1 27 0 17 -26z m-3625
-159 c17 -11 36 -48 66 -130 143 -389 421 -812 669 -1019 39 -33 70 -64 68
-69 -2 -5 -27 -18 -57 -28 l-54 -18 -74 72 c-219 215 -396 483 -536 811 -42
97 -156 408 -156 423 0 4 11 -1 25 -10 14 -9 36 -23 49 -32z m5495 -80 c-169
-493 -371 -837 -651 -1112 l-74 -72 -54 18 c-30 11 -55 24 -55 30 0 6 35 40
78 77 239 204 517 630 656 1007 42 111 46 119 90 147 25 17 47 29 48 27 2 -2
-15 -57 -38 -122z m-5173 -255 c76 -61 245 -196 375 -300 165 -131 240 -197
249 -219 14 -34 8 -173 -11 -245 -12 -44 -44 -85 -67 -85 -24 0 -113 73 -201
165 -138 144 -290 365 -450 653 -56 102 -68 142 -43 142 4 0 71 -50 148 -111z
m4984 93 c0 -46 -288 -515 -408 -663 -77 -96 -234 -245 -279 -267 -35 -16 -35
-16 -59 11 -29 34 -41 78 -49 188 -11 141 -70 82 655 658 63 50 120 91 127 91
7 0 13 -8 13 -18z m-2477 -258 c32 -4 60 -10 62 -14 2 -4 -31 -243 -74 -531
-44 -288 -81 -537 -83 -554 -7 -52 -15 -12 -63 320 -95 659 -109 764 -104 769
9 9 134 24 169 21 19 -3 61 -7 93 -11z m-199 -671 c48 -362 91 -665 94 -673 7
-18 4 -35 47 280 101 726 146 1045 150 1048 6 7 515 -82 515 -89 0 -4 -40 -39
-90 -79 -114 -91 -162 -146 -205 -234 -67 -136 -110 -384 -103 -586 3 -69 10
-136 16 -150 10 -21 11 -17 5 24 -8 66 -9 153 -1 161 7 8 137 29 142 24 3 -2
-5 -31 -16 -64 -28 -84 -20 -176 31 -320 21 -60 46 -127 55 -147 l16 -38 -152
-90 -153 -90 -252 0 -252 0 -150 90 -150 90 48 138 c73 208 82 289 45 395
l-14 39 53 -7 c103 -14 100 -11 95 -128 -4 -69 -2 -94 4 -77 39 103 2 503 -62
672 -35 93 -114 194 -227 288 -56 46 -100 86 -98 88 4 4 479 90 505 91 13 1
30 -111 104 -656z m-1035 418 c127 -71 234 -131 238 -134 3 -4 -4 -29 -16 -56
-31 -73 -25 -85 10 -18 16 31 31 57 32 57 1 0 115 -60 252 -134 l250 -134 13
-49 c15 -58 28 -223 17 -223 -4 0 -84 40 -179 89 -174 90 -658 340 -865 447
-124 64 -146 87 -120 129 40 66 111 155 122 155 8 0 118 -58 246 -129z m506
54 c141 -117 210 -211 241 -330 14 -51 18 -115 8 -115 -13 0 -474 273 -474
281 0 19 115 239 125 239 5 0 51 -34 100 -75z m1426 -46 c33 -67 59 -123 57
-125 -10 -10 -472 -274 -480 -274 -4 0 -6 10 -4 23 3 12 7 41 11 65 8 61 54
157 106 221 41 52 223 211 241 211 4 0 35 -54 69 -121z m652 43 c59 -83 65
-96 54 -127 -7 -20 -46 -41 -667 -360 -107 -56 -263 -136 -347 -180 -84 -44
-155 -77 -158 -73 -9 9 12 188 27 234 12 36 23 43 258 170 135 73 248 133 251
133 3 1 18 -24 34 -54 36 -72 43 -64 12 12 l-24 59 236 131 c130 73 244 132
253 133 10 0 39 -32 71 -78z m-3893 -249 c28 -32 71 -87 94 -123 53 -80 129
-221 122 -227 -4 -4 -303 85 -876 259 -19 6 -38 13 -42 17 -4 4 48 17 115 29
67 12 210 40 317 61 107 22 200 40 207 40 6 1 35 -25 63 -56z m5171 13 c123
-24 268 -52 322 -62 53 -9 97 -20 97 -23 0 -3 -80 -30 -178 -59 -97 -29 -302
-92 -455 -138 -154 -47 -281 -83 -284 -80 -7 7 92 190 135 251 31 42 130 155
137 155 1 0 103 -20 226 -44z m-4140 -158 c-4 -169 38 -306 124 -405 64 -75
214 -133 341 -133 59 0 197 25 227 42 14 7 22 5 33 -9 27 -34 57 -98 71 -148
l13 -50 -4 64 c-3 42 -13 80 -31 114 -29 57 -32 51 56 97 l56 29 18 -37 c39
-81 30 -188 -31 -390 -23 -77 -26 -82 -45 -71 -27 14 -32 7 -24 -30 5 -24 31
-48 140 -126 74 -52 137 -100 140 -106 18 -29 -15 -15 -131 55 -115 69 -162
88 -123 52 28 -27 375 -240 409 -252 57 -20 179 -27 262 -15 75 10 86 16 283
136 190 117 223 140 213 150 -2 2 -55 -27 -118 -66 -63 -38 -121 -69 -127 -69
-35 0 0 34 125 120 124 86 137 98 140 128 3 33 -6 40 -26 20 -6 -6 -13 -10
-16 -7 -2 2 -17 45 -34 94 -56 164 -65 290 -28 378 l16 39 57 -33 c84 -47 91
-54 69 -78 -19 -21 -46 -118 -45 -161 0 -14 8 1 18 35 32 114 69 150 129 126
100 -40 232 -50 327 -26 250 66 389 292 342 557 l-13 77 48 48 c29 29 51 43
57 38 4 -6 50 -68 101 -139 51 -71 100 -131 109 -133 9 -3 72 -26 141 -51 138
-52 152 -67 98 -100 -18 -10 -303 -176 -633 -367 -330 -191 -605 -353 -612
-359 -9 -8 -73 -436 -73 -488 0 -4 -287 -8 -638 -8 l-639 0 -29 242 -29 243
-648 380 c-443 260 -647 385 -645 395 2 9 60 36 148 69 l145 54 100 133 100
133 44 -44 45 -44 -3 -103z m148 -108 c60 -164 178 -249 346 -250 l80 0 58
-51 c31 -28 57 -54 57 -59 0 -13 -76 -39 -150 -51 -177 -27 -376 64 -463 212
-49 83 -70 225 -51 342 l7 37 48 -62 c26 -34 57 -87 68 -118z m2657 103 c27
-254 -117 -458 -360 -510 -45 -9 -93 -12 -131 -8 -65 6 -188 43 -183 54 2 3
27 29 57 56 l53 50 97 6 c183 11 282 88 346 270 13 36 94 149 107 149 3 0 10
-30 14 -67z m-2291 -89 c144 -74 203 -110 196 -117 -7 -7 -18 -7 -32 -1 -15 7
-39 4 -88 -13 -79 -27 -100 -28 -149 -7 -62 25 -100 70 -113 133 -6 31 -20 64
-31 73 -19 17 -17 38 2 38 5 0 102 -48 215 -106z m2020 95 c4 -5 0 -18 -8 -27
-8 -9 -19 -35 -22 -57 -10 -54 -28 -88 -64 -118 -62 -52 -136 -58 -227 -18
-29 13 -46 16 -58 9 -20 -11 -54 -2 -40 12 11 10 396 210 406 210 4 0 10 -5
13 -11z m-2797 -440 c185 -111 436 -261 556 -333 l220 -131 -65 -2 c-35 -2
-652 0 -1370 5 l-1305 7 810 327 c446 179 812 327 814 327 1 1 154 -90 340
-200z m4531 -140 l784 -314 -1284 -7 c-706 -5 -1322 -7 -1369 -5 l-85 2 500
299 c275 164 525 313 555 331 50 30 57 32 85 21 16 -7 383 -154 814 -327z
m-3424 211 c22 -24 20 -26 -56 -69 l-57 -31 -45 52 -46 53 67 6 c37 3 79 6 93
7 15 1 34 -6 44 -18z m1297 10 l49 0 -47 -55 -48 -55 -65 37 c-36 20 -68 37
-70 39 -2 2 7 13 20 24 19 16 33 19 68 15 24 -3 66 -5 93 -5z m573 -684 c33
-7 227 -78 430 -158 204 -80 431 -169 505 -198 74 -29 145 -62 156 -74 17 -16
1052 -1505 1089 -1566 7 -11 1 -10 -20 4 -30 19 -961 648 -1275 862 -91 61
-327 221 -525 355 -918 621 -873 590 -867 611 2 11 21 36 41 55 95 94 309 144
466 109z m-2355 -30 c36 -8 92 -24 124 -37 67 -25 143 -88 134 -111 -4 -8 -86
-69 -185 -135 -98 -67 -700 -474 -1338 -906 -638 -432 -1161 -784 -1163 -782
-3 3 337 498 618 900 42 61 128 184 190 275 215 311 282 405 293 412 10 5 839
331 992 390 42 16 67 18 160 13 61 -2 139 -11 175 -19z m1633 -429 c-18 -19
-20 -28 -13 -72 22 -127 5 -478 -26 -565 -3 -8 -27 42 -55 110 -27 69 -73 171
-100 228 l-51 103 24 34 23 34 27 -52 c31 -59 34 -55 13 23 -13 50 -13 56 3
74 9 10 40 30 67 43 l50 25 -40 -6 c-22 -3 -140 -11 -262 -17 -205 -9 -523 -3
-731 16 l-57 5 40 -15 c22 -8 53 -26 70 -39 l29 -24 -16 -68 c-9 -38 -15 -70
-14 -71 1 -2 13 20 26 47 13 28 26 50 30 50 3 0 16 -13 28 -29 l21 -29 -47
-94 c-26 -51 -72 -154 -102 -228 -62 -154 -60 -155 -85 30 -18 127 -19 235 -4
370 11 98 10 102 -10 116 -12 9 -21 18 -21 22 0 4 271 6 602 4 l601 -2 -20
-23z m-803 -248 c56 -60 57 -61 93 -51 25 7 49 7 73 0 35 -9 36 -11 31 -48 -3
-22 -23 -78 -46 -127 l-40 -87 -21 48 c-13 27 -24 79 -27 122 -3 40 -10 71
-15 68 -11 -7 -70 -124 -93 -186 -10 -27 -21 -48 -26 -48 -15 0 -43 155 -43
240 0 89 13 130 41 130 9 0 42 -27 73 -61z m540 51 c24 -15 19 -236 -6 -315
l-20 -59 -18 49 c-10 28 -38 88 -63 135 l-44 85 59 57 c63 61 68 63 92 48z
m-162 -113 c18 -14 5 -138 -21 -201 l-20 -48 -33 63 c-43 83 -69 168 -56 181
24 24 101 27 130 5z m-945 -229 c-31 -51 -194 -311 -361 -578 -167 -267 -422
-673 -565 -903 -144 -230 -263 -415 -264 -410 -2 4 66 336 151 737 l153 730
344 230 344 230 110 27 c61 15 118 28 128 28 13 1 5 -19 -40 -91z m1659 66
l113 -26 345 -231 c190 -126 346 -231 347 -232 2 -1 56 -258 122 -571 66 -313
136 -645 156 -738 19 -93 34 -170 33 -171 -3 -2 -1159 1843 -1227 1956 -12 21
-18 39 -12 39 6 0 61 -12 123 -26z m-1350 -352 l59 -93 9 -107 c5 -59 16 -224
26 -367 15 -244 16 -262 0 -299 -10 -21 -19 -36 -22 -34 -2 3 -17 143 -33 312
-16 170 -32 310 -35 313 -3 3 -3 -23 -1 -58 3 -35 12 -188 21 -339 13 -233 48
-717 70 -977 l7 -72 -37 11 c-20 6 -36 15 -36 19 0 4 -13 113 -30 241 -59 467
-85 773 -102 1203 -6 171 -9 319 -5 329 15 39 49 13 109 -82z m1068 -107 c0
-233 -11 -448 -40 -775 -19 -211 -86 -782 -94 -806 -3 -6 -18 -16 -35 -22
l-31 -11 -1 62 -1 62 -9 -55 c-18 -113 -23 -119 -65 -72 -24 26 -25 31 -20
117 l6 90 -24 -60 -24 -60 -11 28 c-17 44 -13 73 18 145 16 37 50 123 76 192
25 69 49 132 53 140 4 8 9 -66 12 -165 l5 -180 18 230 c29 382 46 642 51 805
l5 155 -28 -280 c-16 -154 -31 -293 -33 -310 l-3 -30 -21 40 -21 40 26 365 26
365 49 80 c61 99 74 115 98 115 17 0 18 -12 18 -205z m-595 -373 c9 -132 12
-136 15 -27 1 55 2 103 2 107 -1 7 304 291 318 296 5 2 6 -14 4 -35 -4 -33
-44 -552 -44 -567 0 -3 -14 -22 -32 -43 l-32 -38 30 28 c17 15 33 27 37 27 4
0 7 -24 7 -52 0 -77 -31 -125 -102 -162 -78 -40 -119 -32 -156 29 -33 54 -57
57 -76 11 -41 -97 -188 -77 -243 34 -21 41 -33 140 -17 140 4 0 33 -25 66 -55
l59 -55 173 0 c165 0 174 1 192 22 l19 22 -25 -17 c-20 -14 -51 -17 -188 -17
l-164 0 -38 33 c-83 71 -79 57 -106 375 -13 158 -24 298 -24 311 0 19 29 -4
159 -128 l159 -152 7 -87z m-321 -792 c29 -80 66 -171 80 -204 29 -64 32 -91
15 -133 l-11 -28 -18 40 c-10 22 -19 48 -19 57 -1 9 -4 19 -9 22 -4 2 -3 -36
2 -86 l9 -90 -31 -31 c-20 -20 -35 -28 -41 -22 -18 21 -33 169 -38 395 -3 129
-3 233 0 230 4 -3 31 -71 61 -150z m268 -217 c17 -15 19 -15 37 1 18 17 21 17
45 0 25 -15 28 -15 45 0 16 15 19 14 38 -7 12 -12 23 -31 26 -42 4 -19 5 -19
6 1 0 11 10 29 22 40 21 19 21 18 39 -3 15 -20 16 -29 5 -93 -7 -39 -16 -75
-21 -80 -8 -8 -125 -21 -174 -20 -61 1 -109 6 -115 11 -3 4 -23 5 -44 2 -44
-6 -45 -4 -56 102 -5 45 -3 65 8 80 15 20 15 20 37 0 12 -11 26 -29 31 -40 7
-18 8 -18 8 4 1 22 26 61 39 61 3 0 14 -7 24 -17z m-321 -270 c21 -18 36 -16
75 8 l33 20 78 -24 c147 -46 279 -44 405 7 l58 24 36 -29 c28 -22 40 -26 54
-19 10 5 20 14 22 20 1 5 18 13 37 16 32 7 33 6 27 -22 -3 -16 -11 -82 -17
-147 -15 -140 -12 -138 -149 -173 -208 -54 -400 -51 -590 8 -94 29 -100 37
-116 164 -7 60 -16 126 -19 146 l-5 38 27 -12 c16 -7 35 -18 44 -25z"/>
<path d="M4173 1015 c0 -27 2 -38 4 -22 2 15 2 37 0 50 -2 12 -4 0 -4 -28z"/>
</g>
</svg>
